HIERARCHY
ROOT mixamorig:Hips
{
	OFFSET 0.00 0.00 0.00
	CHANNELS 6 Xposition Yposition Zposition Zrotation Yrotation Xrotation
	JOINT mixamorig:Spine
	{
		OFFSET	0.0000	9.9235	-1.2273
		CHANNELS 3 Zrotation Yrotation Xrotation
		JOINT mixamorig:Spine1
		{
			OFFSET	-0.0001	11.6455	-1.4224
			CHANNELS 3 Zrotation Yrotation Xrotation
			JOINT mixamorig:Spine2
			{
				OFFSET	0.0001	13.3602	-1.6265
				CHANNELS 3 Zrotation Yrotation Xrotation
				JOINT mixamorig:Neck
				{
					OFFSET	0.0000	15.0325	0.7929
					CHANNELS 3 Zrotation Yrotation Xrotation
					JOINT mixamorig:Head
					{
						OFFSET	-0.0000	10.3218	3.1424
						CHANNELS 3 Zrotation Yrotation Xrotation
						JOINT mixamorig:HeadTop_End
						{
							OFFSET	0.0002	18.4747	6.6364
							CHANNELS 3 Zrotation Yrotation Xrotation
							End Site
							{
								OFFSET 0.0000 0.0000 0.0000
							}
						}
						JOINT mixamorig:LeftEye
						{
							OFFSET	2.9479	7.6817	9.1207
							CHANNELS 3 Zrotation Yrotation Xrotation
							End Site
							{
								OFFSET 0.0000 0.0000 0.0000
							}
						}
						JOINT mixamorig:RightEye
						{
							OFFSET	-2.9445	7.6817	9.1205
							CHANNELS 3 Zrotation Yrotation Xrotation
							End Site
							{
								OFFSET 0.0000 0.0000 0.0000
							}
						}
					}
				}
				JOINT mixamorig:LeftShoulder
				{
					OFFSET	6.1059	9.1104	0.7056
					CHANNELS 3 Zrotation Yrotation Xrotation
					JOINT mixamorig:LeftArm
					{
						OFFSET	12.6532	-0.3431	-2.6009
						CHANNELS 3 Zrotation Yrotation Xrotation
						JOINT mixamorig:LeftForeArm
						{
							OFFSET	27.3517	-0.9645	-1.4034
							CHANNELS 3 Zrotation Yrotation Xrotation
							JOINT mixamorig:LeftHand
							{
								OFFSET	27.5619	-0.7072	1.5500
								CHANNELS 3 Zrotation Yrotation Xrotation
								JOINT mixamorig:LeftHandMiddle1
								{
									OFFSET	12.6630	-1.3962	0.9548
									CHANNELS 3 Zrotation Yrotation Xrotation
									JOINT mixamorig:LeftHandMiddle2
									{
										OFFSET	3.6093	-0.1669	0.0778
										CHANNELS 3 Zrotation Yrotation Xrotation
										JOINT mixamorig:LeftHandMiddle3
										{
											OFFSET	3.4004	-0.6274	0.1148
											CHANNELS 3 Zrotation Yrotation Xrotation
											End Site
											{
												OFFSET 3.6205 -0.6493 0.1199
											}
										}
									}
								}
								JOINT mixamorig:LeftHandThumb1
								{
									OFFSET	3.3268	-2.0474	3.5790
									CHANNELS 3 Zrotation Yrotation Xrotation
									JOINT mixamorig:LeftHandThumb2
									{
										OFFSET	3.4890	-1.4806	2.8548
										CHANNELS 3 Zrotation Yrotation Xrotation
										JOINT mixamorig:LeftHandThumb3
										{
											OFFSET	3.4086	-1.7658	2.1133
											CHANNELS 3 Zrotation Yrotation Xrotation
											End Site
											{
												OFFSET 2.7231 -1.1597 1.7903
											}
										}
									}
								}
								JOINT mixamorig:LeftHandIndex1
								{
									OFFSET	11.9722	-1.1061	3.7324
									CHANNELS 3 Zrotation Yrotation Xrotation
									JOINT mixamorig:LeftHandIndex2
									{
										OFFSET	3.8387	-0.6406	-0.0310
										CHANNELS 3 Zrotation Yrotation Xrotation
										JOINT mixamorig:LeftHandIndex3
										{
											OFFSET	3.3346	-0.7374	-0.0133
											CHANNELS 3 Zrotation Yrotation Xrotation
											End Site
											{
												OFFSET 2.9714 -0.8030 0.0009
											}
										}
									}
								}
								JOINT mixamorig:LeftHandRing1
								{
									OFFSET	12.1659	-1.6805	-1.2769
									CHANNELS 3 Zrotation Yrotation Xrotation
									JOINT mixamorig:LeftHandRing2
									{
										OFFSET	3.5925	-0.2366	-0.0771
										CHANNELS 3 Zrotation Yrotation Xrotation
										JOINT mixamorig:LeftHandRing3
										{
											OFFSET	3.2906	-0.3266	-0.0615
											CHANNELS 3 Zrotation Yrotation Xrotation
											End Site
											{
												OFFSET 3.5423 -0.9211 -0.0200
											}
										}
									}
								}
								JOINT mixamorig:LeftHandPinky1
								{
									OFFSET	11.0508	-2.1872	-3.8040
									CHANNELS 3 Zrotation Yrotation Xrotation
									JOINT mixamorig:LeftHandPinky2
									{
										OFFSET	4.1236	-0.3047	0.1212
										CHANNELS 3 Zrotation Yrotation Xrotation
										JOINT mixamorig:LeftHandPinky3
										{
											OFFSET	2.5805	-0.2597	0.0823
											CHANNELS 3 Zrotation Yrotation Xrotation
											End Site
											{
												OFFSET 2.9027 -0.3379 0.0963
											}
										}
									}
								}
							}
						}
					}
				}
				JOINT mixamorig:RightShoulder
				{
					OFFSET	-6.1057	9.1105	0.7056
					CHANNELS 3 Zrotation Yrotation Xrotation
					JOINT mixamorig:RightArm
					{
						OFFSET	-12.6532	-0.3429	-2.6009
						CHANNELS 3 Zrotation Yrotation Xrotation
						JOINT mixamorig:RightForeArm
						{
							OFFSET	-27.3518	-0.9642	-1.4034
							CHANNELS 3 Zrotation Yrotation Xrotation
							JOINT mixamorig:RightHand
							{
								OFFSET	-27.5619	-0.7068	1.5501
								CHANNELS 3 Zrotation Yrotation Xrotation
								JOINT mixamorig:RightHandMiddle1
								{
									OFFSET	-12.6630	-1.3960	0.9549
									CHANNELS 3 Zrotation Yrotation Xrotation
									JOINT mixamorig:RightHandMiddle2
									{
										OFFSET	-3.6093	-0.1669	0.0778
										CHANNELS 3 Zrotation Yrotation Xrotation
										JOINT mixamorig:RightHandMiddle3
										{
											OFFSET	-3.4004	-0.6273	0.1148
											CHANNELS 3 Zrotation Yrotation Xrotation
											End Site
											{
												OFFSET -3.6205 -0.6492 0.1199
											}
										}
									}
								}
								JOINT mixamorig:RightHandThumb1
								{
									OFFSET	-3.3269	-2.0474	3.5790
									CHANNELS 3 Zrotation Yrotation Xrotation
									JOINT mixamorig:RightHandThumb2
									{
										OFFSET	-3.4890	-1.4805	2.8548
										CHANNELS 3 Zrotation Yrotation Xrotation
										JOINT mixamorig:RightHandThumb3
										{
											OFFSET	-3.4086	-1.7658	2.1133
											CHANNELS 3 Zrotation Yrotation Xrotation
											End Site
											{
												OFFSET -2.7231 -1.1596 1.7903
											}
										}
									}
								}
								JOINT mixamorig:RightHandIndex1
								{
									OFFSET	-11.9722	-1.1059	3.7324
									CHANNELS 3 Zrotation Yrotation Xrotation
									JOINT mixamorig:RightHandIndex2
									{
										OFFSET	-3.8387	-0.6406	-0.0310
										CHANNELS 3 Zrotation Yrotation Xrotation
										JOINT mixamorig:RightHandIndex3
										{
											OFFSET	-3.3346	-0.7373	-0.0133
											CHANNELS 3 Zrotation Yrotation Xrotation
											End Site
											{
												OFFSET -2.9715 -0.8029 0.0009
											}
										}
									}
								}
								JOINT mixamorig:RightHandRing1
								{
									OFFSET	-12.1659	-1.6803	-1.2769
									CHANNELS 3 Zrotation Yrotation Xrotation
									JOINT mixamorig:RightHandRing2
									{
										OFFSET	-3.5925	-0.2366	-0.0771
										CHANNELS 3 Zrotation Yrotation Xrotation
										JOINT mixamorig:RightHandRing3
										{
											OFFSET	-3.2906	-0.3265	-0.0615
											CHANNELS 3 Zrotation Yrotation Xrotation
											End Site
											{
												OFFSET -3.5423 -0.9210 -0.0200
											}
										}
									}
								}
								JOINT mixamorig:RightHandPinky1
								{
									OFFSET	-11.0508	-2.1870	-3.8040
									CHANNELS 3 Zrotation Yrotation Xrotation
									JOINT mixamorig:RightHandPinky2
									{
										OFFSET	-4.1236	-0.3046	0.1212
										CHANNELS 3 Zrotation Yrotation Xrotation
										JOINT mixamorig:RightHandPinky3
										{
											OFFSET	-2.5805	-0.2597	0.0823
											CHANNELS 3 Zrotation Yrotation Xrotation
											End Site
											{
												OFFSET -2.9027 -0.3379 0.0963
											}
										}
									}
								}
							}
						}
					}
				}
			}
		}
	}
	JOINT mixamorig:RightUpLeg
	{
		OFFSET	-9.1245	-6.6564	-0.0554
		CHANNELS 3 Zrotation Yrotation Xrotation
		JOINT mixamorig:RightLeg
		{
			OFFSET	0.0000	-40.5610	-1.7662
			CHANNELS 3 Zrotation Yrotation Xrotation
			JOINT mixamorig:RightFoot
			{
				OFFSET	0.4978	-41.9625	-3.3512
				CHANNELS 3 Zrotation Yrotation Xrotation
				JOINT mixamorig:RightToeBase
				{
					OFFSET	-0.3734	-10.4922	12.6406
					CHANNELS 3 Zrotation Yrotation Xrotation
					End Site
					{
						OFFSET 0.0000 0.0000 9.9925
					}
				}
			}
		}
	}
	JOINT mixamorig:LeftUpLeg
	{
		OFFSET	9.1245	-6.6564	-0.0554
		CHANNELS 3 Zrotation Yrotation Xrotation
		JOINT mixamorig:LeftLeg
		{
			OFFSET	-0.0000	-40.5610	-1.7662
			CHANNELS 3 Zrotation Yrotation Xrotation
			JOINT mixamorig:LeftFoot
			{
				OFFSET	-0.4978	-41.9625	-3.3512
				CHANNELS 3 Zrotation Yrotation Xrotation
				JOINT mixamorig:LeftToeBase
				{
					OFFSET	0.3734	-10.4922	12.6406
					CHANNELS 3 Zrotation Yrotation Xrotation
					End Site
					{
						OFFSET -0.0000 0.0000 9.9925
					}
				}
			}
		}
	}
}
MOTION
Frames: 5
Frame Time: 0.0333333
0.9884 82.2790 4.1685 0.5620 -6.8807 5.8398 -1.3238 -6.4122 9.5006 0.5342 -1.9775 3.4245 0.5182 -1.9826 3.4274 -7.0410 6.2886 -5.3334 13.3883 -7.9418 -3.8266 0.0000 -0.0000 0.0000 0.0000 -0.0000 0.0000 0.0000 -0.0000 0.0000 3.4077 4.8126 -37.4544 -40.2048 -36.7346 10.8069 1.4151 -64.5214 -3.0957 -0.5518 17.7734 -51.6455 -9.2831 0.8604 0.4913 -31.8196 -1.3974 1.1032 -10.7091 -0.6295 0.2985 -3.9110 0.9439 6.7636 10.1445 -9.1883 13.1719 0.6108 -7.6517 -2.0410 11.4170 -4.2379 -0.9950 -32.3305 -1.6435 -0.0408 -21.9316 -1.0695 -0.0923 -22.2229 -3.7884 0.7239 -46.2427 -2.6544 -0.0658 -29.2723 -1.4800 -0.2336 -27.6069 3.4219 1.5676 -41.5976 -1.8275 1.8078 -24.0134 -1.2296 0.9000 12.6973 -15.3098 -38.1525 95.5023 36.3726 66.1895 -5.6392 78.8516 -7.5078 -15.1695 -3.6268 -39.4326 52.2161 1.4894 3.1209 102.5065 3.1627 6.5687 17.5290 1.3444 0.5382 17.1035 -5.0785 13.6798 -22.9786 -7.6877 20.8609 -34.9274 -48.0767 34.8914 -2.9547 9.0975 -1.6010 13.5284 0.9838 -0.1527 6.7490 0.4510 -0.0953 56.2119 12.3474 2.6794 96.6942 5.9683 3.3295 45.5324 3.4923 0.2356 71.4872 10.5596 4.0377 77.6279 3.3847 4.9019 66.7771 3.3730 4.0221 -2.5425 7.2704 -60.9269 0.1403 1.5450 100.2791 3.8940 -20.2405 -2.4828 0.0000 -0.0000 -9.5857 -8.5785 4.6807 -31.9457 5.4550 5.2363 71.4222 -1.9984 11.6632 -39.1007 -0.0000 0.0000 -10.6448 
0.7879 83.5657 3.4563 -1.3513 -5.7808 7.3194 0.4662 -7.6737 8.9592 0.7177 -2.2984 3.2422 0.7000 -2.3057 3.2423 -7.0550 6.1661 -4.5729 14.3574 -9.4444 -3.8705 0.0000 -0.0000 0.0000 0.0000 -0.0000 0.0000 0.0000 -0.0000 0.0000 3.4394 6.0150 -37.6980 -42.8990 -37.4611 14.0119 2.0384 -68.6396 -3.7740 5.0577 18.4589 -40.2367 -9.2963 1.7695 0.5322 -26.7064 -1.1812 0.8718 -8.5901 -0.5132 0.2298 -3.9110 0.9439 6.7636 10.1445 -9.1883 13.1719 0.6108 -7.6517 -2.0410 13.3688 -3.4969 -0.9186 -28.1863 -1.4258 -0.0882 -21.2079 -1.0308 -0.0957 -18.0043 -3.3346 0.5489 -44.9699 -2.5829 -0.0933 -33.4769 -1.7295 -0.2002 -26.5711 3.7049 1.5323 -34.2826 -1.6003 1.3989 -22.1555 -1.1477 0.8126 12.7051 -15.3336 -38.1539 92.9137 36.3859 63.8150 -5.3226 78.3673 -7.1850 -15.1479 -6.2575 -38.6783 52.1989 0.9368 3.1452 102.7769 3.1533 6.5887 17.3165 1.3294 0.5292 17.1035 -5.0786 13.6798 -22.9786 -7.6877 20.8609 -34.9274 -48.0767 34.8914 -3.6588 8.9226 -1.5953 13.5995 0.9891 -0.1529 6.8757 0.4603 -0.0967 57.1863 12.3941 2.7562 96.7687 5.9696 3.3353 45.4473 3.4863 0.2326 71.1690 10.5617 4.0111 77.4239 3.3858 4.8850 66.5530 3.3708 4.0036 -1.9683 8.3229 -70.3416 -0.8347 1.4899 86.7573 5.4338 -15.2211 0.1574 0.0000 -0.0000 -10.3052 -6.3616 6.1715 -23.3751 4.9531 5.0115 65.5411 -3.4075 10.7618 -37.4700 -0.0000 0.0000 -13.6858 
0.8233 85.8323 2.4135 -2.8528 -5.6603 9.1449 2.0890 -7.8908 8.6652 0.9752 -2.3687 3.0927 0.9575 -2.3780 3.0908 -7.1891 6.0634 -3.7047 14.8854 -11.0586 -3.8718 0.0000 -0.0000 0.0000 0.0000 -0.0000 0.0000 0.0000 -0.0000 0.0000 4.3354 6.8671 -37.8028 -45.4831 -38.5047 16.3072 2.1614 -69.2960 -3.9057 9.4031 16.7351 -32.7670 -9.2943 1.6908 0.5287 -27.1488 -1.2007 0.8910 -8.7728 -0.5233 0.2355 -3.9110 0.9439 6.7636 10.1445 -9.1883 13.1719 0.6108 -7.6517 -2.0410 13.2006 -3.5612 -0.9254 -28.5450 -1.4447 -0.0847 -21.2703 -1.0341 -0.0954 -14.3391 -2.8393 0.4142 -44.2410 -2.5418 -0.1083 -33.0958 -1.7070 -0.2040 -26.6610 3.6804 1.5354 -27.0576 -1.3265 1.0266 -22.3159 -1.1549 0.8201 12.3856 -14.9117 -38.2820 90.2054 35.0945 59.5548 -5.4306 78.5371 -7.2951 -14.5010 -8.2501 -35.7273 52.3500 0.5096 3.1770 102.8827 3.1496 6.5965 17.1908 1.3205 0.5240 17.1035 -5.0786 13.6798 -22.9786 -7.6877 20.8609 -34.9274 -48.0767 34.8914 -4.9373 8.5629 -1.5758 13.3840 0.9730 -0.1523 6.8862 0.4611 -0.0968 58.3058 12.4124 2.8471 96.7665 5.9695 3.3352 45.4657 3.4876 0.2333 70.7212 10.5635 3.9738 77.1601 3.3872 4.8632 66.4365 3.3697 3.9940 -0.1490 7.2321 -69.3165 -3.3617 0.4215 61.6478 15.7275 -12.9079 -8.9514 0.0000 -0.0000 -7.0003 -4.0122 8.8751 -13.6836 3.4660 4.6329 54.1824 -4.5811 9.0066 -31.0925 -1.8169 -0.5204 -18.5490 
1.0803 88.5833 1.4792 -3.9221 -6.7242 10.5629 3.4064 -7.2276 8.6458 1.1966 -2.2309 3.2288 1.1747 -2.2461 3.2245 -7.3497 5.9841 -2.8455 14.9534 -12.5697 -3.6575 0.0000 -0.0000 0.0000 0.0000 -0.0000 0.0000 0.0000 -0.0000 0.0000 5.9267 7.2322 -37.7973 -48.6963 -40.9958 18.1925 1.6591 -66.3156 -3.3638 13.5534 13.0603 -28.4467 -9.2810 1.1573 0.5045 -30.1503 -1.3291 1.0255 -10.0122 -0.5915 0.2754 -3.9110 0.9439 6.7636 10.1445 -9.1883 13.1719 0.6108 -7.6517 -2.0410 12.0594 -3.9973 -0.9708 -30.9790 -1.5729 -0.0580 -21.6937 -1.0567 -0.0935 -11.2978 -2.3799 0.3136 -43.8084 -2.5172 -0.1170 -30.5106 -1.5537 -0.2257 -27.2711 3.5144 1.5562 -20.6639 -1.0467 0.7280 -23.4044 -1.2031 0.8711 11.9009 -14.2812 -38.4743 88.3623 33.3835 54.9594 -5.6483 78.8649 -7.5171 -13.4714 -9.3992 -31.8135 52.4290 0.0696 3.2035 102.9114 3.1486 6.5987 17.1212 1.3156 0.5210 17.1035 -5.0785 13.6798 -22.9786 -7.6877 20.8609 -34.9274 -48.0767 34.8914 -4.7909 8.3193 -1.5274 12.6717 0.9200 -0.1499 6.6987 0.4473 -0.0947 59.4372 12.4349 2.9390 96.7200 5.9687 3.3316 45.5284 3.4920 0.2355 70.3104 10.5652 3.9395 76.9306 3.3884 4.8442 66.2990 3.3683 3.9826 2.8499 5.8426 -58.4918 -3.9641 -4.0864 27.2193 27.3558 -11.7656 -21.7065 -0.0000 0.0000 -2.8526 -1.9983 12.2876 -1.5924 1.9907 3.8657 36.8279 -5.1132 6.6034 -17.8607 -0.2996 -0.1041 -28.7192 
1.3601 90.5853 1.6013 -3.2706 -8.0265 11.3740 3.2364 -7.1253 8.0805 1.0297 -2.2300 3.0959 1.0068 -2.2488 3.0862 -7.4741 5.9439 -2.1366 14.7059 -13.6876 -3.2451 0.0000 -0.0000 0.0000 0.0000 -0.0000 0.0000 0.0000 -0.0000 0.0000 8.6530 7.3097 -37.6018 -52.0632 -43.4242 18.1052 1.3370 -63.8860 -3.0091 17.2040 9.5186 -24.0099 -9.2703 0.7350 0.4852 -32.5260 -1.4257 1.1367 -10.9930 -0.6449 0.3080 -3.9110 0.9439 6.7636 10.1445 -9.1883 13.1719 0.6108 -7.6517 -2.0410 11.1564 -4.3422 -1.0059 -32.9054 -1.6735 -0.0330 -22.0287 -1.0747 -0.0918 -8.8960 -2.0271 0.2389 -43.4052 -2.4943 -0.1248 -28.4650 -1.4318 -0.2379 -27.7539 3.3833 1.5728 -15.7547 -0.8102 0.5209 -24.2658 -1.2406 0.9121 11.3231 -13.6097 -38.6495 87.8070 31.1151 51.7469 -4.9284 77.7008 -6.7820 -12.3352 -9.1971 -29.0294 52.1989 -0.5272 3.2126 102.9196 3.1483 6.5993 17.0960 1.3138 0.5200 17.1035 -5.0786 13.6798 -22.9786 -7.6877 20.8609 -34.9274 -48.0767 34.8914 -4.5732 8.1978 -1.4983 11.7980 0.8549 -0.1461 6.4077 0.4258 -0.0913 60.4930 12.4933 3.0225 96.6479 5.9675 3.3259 45.5979 3.4970 0.2380 70.0755 10.5669 3.9199 76.8193 3.3889 4.8350 66.0115 3.3653 3.9589 4.8590 4.2009 -52.8670 -1.3896 -1.7295 15.3453 27.8797 -13.0876 -22.7571 0.0000 -0.0000 -11.3615 -1.9975 14.7664 7.5480 1.2607 2.3350 22.6870 -4.6915 6.5527 8.7898 -0.6617 -0.3058 -47.5032 
